<?xml version="1.0" standalone="no"?>
<!DOCTYPE svg PUBLIC "-//W3C//DTD SVG 20010904//EN"
 "http://www.w3.org/TR/2001/REC-SVG-20010904/DTD/svg10.dtd">
<svg version="1.0" xmlns="http://www.w3.org/2000/svg"
 width="292.000000pt" height="292.000000pt" viewBox="0 0 292.000000 292.000000"
 preserveAspectRatio="xMidYMid meet">
<metadata>
Created by potrace 1.14, written by Peter Selinger 2001-2017
</metadata>
<g transform="translate(0.000000,292.000000) scale(0.100000,-0.100000)"
fill="#000000" stroke="none">
<path d="M1185 2870 c-3 -6 -11 -8 -16 -5 -8 6 -18 0 -54 -33 -8 -7 -15 -10
-15 -5 -1 4 -8 -4 -16 -19 -8 -16 -19 -28 -25 -28 -6 0 -8 -4 -4 -9 3 -5 1
-12 -5 -16 -6 -4 -8 -10 -5 -14 2 -5 -3 -15 -13 -23 -13 -11 -44 -14 -137 -13
-66 1 -124 -1 -130 -4 -5 -3 -12 -6 -15 -7 -33 -6 -60 -18 -60 -27 0 -6 -3 -7
-7 -4 -9 10 -74 -64 -82 -93 -2 -8 -5 -227 -5 -486 -1 -374 -4 -475 -15 -487
-7 -9 -10 -20 -7 -25 3 -6 -1 -15 -9 -22 -8 -7 -12 -16 -9 -21 3 -5 0 -9 -5
-9 -6 0 -10 -3 -9 -7 3 -16 -14 -63 -22 -58 -4 2 -6 -6 -5 -20 2 -13 -3 -26
-12 -29 -8 -3 -12 -10 -9 -14 3 -5 -2 -21 -9 -36 -8 -16 -12 -33 -8 -39 3 -6
1 -7 -5 -3 -8 4 -12 0 -12 -12 0 -10 -3 -22 -7 -26 -5 -4 -9 -12 -9 -17 -1 -5
-3 -11 -4 -14 -1 -3 -3 -8 -5 -12 -1 -5 -10 -26 -20 -48 -10 -22 -19 -42 -20
-45 -2 -13 -49 -126 -57 -137 -6 -7 -7 -17 -3 -23 3 -5 2 -10 -3 -10 -6 0 -12
-10 -16 -23 -3 -13 -13 -41 -23 -63 -9 -21 -16 -42 -15 -46 1 -5 -3 -8 -10 -8
-6 0 -8 -3 -5 -6 3 -4 2 -15 -4 -26 -12 -23 -16 -99 -6 -116 5 -6 6 -16 3 -21
-4 -5 -2 -11 3 -13 5 -1 11 -9 13 -17 3 -15 68 -81 79 -81 4 0 24 -8 45 -17
22 -9 42 -16 47 -15 4 1 7 -2 7 -8 0 -6 3 -9 8 -8 4 0 16 -2 27 -6 114 -43
112 -41 110 -99 -1 -55 17 -98 58 -142 22 -24 97 -61 97 -49 0 4 6 2 13 -4 13
-11 34 -11 53 1 6 3 14 3 18 -1 12 -11 336 -9 336 3 0 6 3 6 8 -1 4 -6 21 -11
37 -11 25 -1 141 -44 255 -95 14 -6 34 -14 45 -18 11 -5 38 -16 60 -26 65 -29
136 -42 179 -32 44 10 113 55 119 78 2 8 5 20 6 25 1 6 9 14 17 18 8 5 12 12
9 18 -4 5 -1 9 5 9 6 0 8 4 5 10 -6 9 125 15 238 11 20 -1 37 4 37 10 0 5 4 7
10 4 20 -12 139 73 123 89 -4 3 0 6 7 6 7 0 10 3 7 7 -4 3 -2 11 3 18 5 6 10
34 11 61 1 27 7 55 13 63 8 11 8 13 0 8 -15 -9 -15 145 0 155 8 6 8 8 0 8 -15
0 -15 100 0 100 8 0 8 2 0 8 -15 9 -15 194 0 204 8 6 8 8 0 8 -15 0 -15 100 0
100 8 0 8 2 0 8 -15 9 -14 214 0 224 8 5 7 8 -1 8 -8 0 -7 10 4 32 9 18 19 35
23 38 3 3 5 12 5 20 0 8 5 26 12 40 7 14 13 31 13 38 0 6 5 12 11 12 5 0 8 4
4 9 -3 5 -1 12 5 16 5 3 10 15 10 25 0 10 7 25 15 33 8 8 12 17 9 20 -3 3 -1
13 4 24 28 51 52 115 47 123 -4 6 -2 10 4 10 6 0 14 12 17 28 4 15 10 32 14
37 12 17 75 180 72 188 -1 4 3 7 9 7 5 0 8 4 4 9 -3 5 -1 12 5 16 5 3 10 15
10 26 0 10 5 19 12 19 6 0 9 3 6 6 -4 3 0 20 7 37 12 30 13 99 2 142 -3 11 -6
23 -6 27 -1 10 -81 93 -81 83 0 -4 -6 -2 -13 4 -8 6 -17 8 -20 4 -4 -3 -7 -1
-7 5 0 7 -4 12 -9 12 -5 0 -22 5 -38 12 -15 6 -31 11 -35 10 -5 -1 -8 3 -8 8
0 5 -3 9 -7 8 -5 -2 -28 6 -53 16 -25 11 -47 19 -50 18 -3 0 -7 27 -8 61 -1
34 -7 64 -12 65 -6 2 -8 8 -5 12 8 13 -52 78 -89 97 -44 23 -46 24 -306 27
-215 3 -240 5 -290 26 -30 12 -61 22 -67 23 -7 0 -13 5 -13 10 0 5 -7 7 -15 3
-8 -3 -15 -1 -15 4 0 5 -12 13 -27 16 -16 4 -33 11 -39 15 -6 5 -19 10 -30 12
-11 1 -38 12 -62 25 -23 12 -42 20 -42 17 0 -2 -15 2 -32 9 -42 16 -114 20
-123 6z m-395 -2600 c0 -5 -2 -10 -4 -10 -3 0 -8 5 -11 10 -3 6 -1 10 4 10 6
0 11 -4 11 -10z m43 3 c-7 -2 -19 -2 -25 0 -7 3 -2 5 12 5 14 0 19 -2 13 -5z
m157 0 c0 -8 -127 -10 -135 -2 -2 3 27 6 65 7 39 2 70 -1 70 -5z m30 -3 c0 -5
-2 -10 -4 -10 -3 0 -8 5 -11 10 -3 6 -1 10 4 10 6 0 11 -4 11 -10z m80 1 c0
-4 -15 -6 -34 -6 -19 0 -32 3 -30 7 5 8 64 7 64 -1z m110 1 c0 -4 -22 -7 -50
-7 -27 -1 -44 2 -38 6 14 9 88 10 88 1z m43 1 c-7 -2 -19 -2 -25 0 -7 3 -2 5
12 5 14 0 19 -2 13 -5z m60 0 c-7 -2 -21 -2 -30 0 -10 3 -4 5 12 5 17 0 24 -2
18 -5z m157 -1 c0 -8 -126 -9 -134 -1 -3 2 26 5 65 6 38 2 69 -1 69 -5z m43 1
c-7 -2 -19 -2 -25 0 -7 3 -2 5 12 5 14 0 19 -2 13 -5z m64 1 c-3 -3 -12 -4
-19 -1 -8 3 -5 6 6 6 11 1 17 -2 13 -5z m373 -2 c0 -5 -13 -7 -30 -4 -16 2
-30 6 -30 8 0 2 14 4 30 4 17 0 30 -4 30 -8z m43 1 c-7 -2 -19 -2 -25 0 -7 3
-2 5 12 5 14 0 19 -2 13 -5z m57 -3 c0 -5 -2 -10 -4 -10 -3 0 -8 5 -11 10 -3
6 -1 10 4 10 6 0 11 -4 11 -10z m118 4 c-8 -7 -87 -11 -98 -4 -6 4 15 7 46 8
31 0 54 -1 52 -4z"/>
</g>
</svg>
